<mxfile host="app.diagrams.net" modified="2023-12-26T06:46:31.267Z" agent="Mozilla/5.0 (Macintosh; Intel Mac OS X 10_15_7) AppleWebKit/537.36 (KHTML, like Gecko) Chrome/120.0.0.0 Safari/537.36" version="22.1.11" etag="ZTx_7xbqFy_XAzTm3Sc7" type="github">
  <diagram name="페이지-1" id="Nm24UJuUaGfR-6xKC6g_">
    <mxGraphModel>
      <root>
        <mxCell id="0" />
        <mxCell id="1" parent="0" />
      </root>
    </mxGraphModel>
  </diagram>
</mxfile>
